<?xml version="1.0" encoding="UTF-8"?>
<svg id="Layer_1" data-name="Layer 1" xmlns="http://www.w3.org/2000/svg" viewBox="0 0 216.62 130.79">
  <defs>
    <style>
      .cls-1 {
        stroke-width: .5px;
      }

      .cls-1, .cls-2 {
        fill: #fff;
        stroke: #000;
        stroke-miterlimit: 10;
      }

      .cls-2 {
        stroke-width: 1.46px;
      }
    </style>
  </defs>
  <g>
    <path class="cls-2" d="m103.41,82.68c-.23.38-.46.77-.65,1.17-1.01,2.2-2.25,4.25-3.88,6.05-.25.27-.51.54-.77.8-.25.25-.5.49-.81.8.8-1.63,1.59-3.15,2.28-4.71.84-1.92,1.43-3.91,1.28-6.04-.02-.24-.07-.48-.1-.72-.05,0-.11,0-.16,0-.11.28-.24.56-.33.84-.8,2.58-2.01,4.96-3.48,7.22-1.4,2.14-3.25,3.81-5.38,5.19-.23.15-.49.23-.74.34-.02-.04-.05-.08-.07-.12.19-.27.38-.55.58-.82.8-1.09,1.26-2.32,1.43-3.66.03-.23-.03-.48-.04-.72l-.15-.02c-.17.24-.35.48-.51.74-.67,1.05-1.28,2.15-2.02,3.14-1.01,1.34-2.16,2.58-3.6,3.49-.28.18-.79.36-1,.23-.37-.24-.11-.69.01-1.05.25-.7.51-1.39.74-2.08.06-.17.05-.37.07-.56-.04-.02-.08-.05-.13-.07-.2.2-.41.39-.58.6-1.43,1.8-3.23,3.12-5.34,4.01-1.21.51-2.45.44-3.65-.06-.89-.36-1.4-1.03-1.43-2.02-.02-.75-.05-1.51-.1-2.26-.01-.23-.07-.46-.11-.69-.07,0-.14-.02-.2-.03-.17.54-.36,1.08-.5,1.63-.14.58-.19,1.19-.35,1.77-.17.64-.54.8-1.16.57-.86-.32-1.54-.88-2.13-1.58-.67-.81-1.08-1.75-1.43-2.73-.09-.26-.23-.5-.35-.74-.05.01-.11.03-.16.04-.03.3-.07.6-.1.89-.05.5-.05,1.02-.17,1.51-.17.67-.68.94-1.31.66-.48-.21-1-.5-1.31-.91-.79-1.02-1.47-2.11-2.2-3.18-.14-.2-.28-.41-.46-.66-.09.15-.14.2-.15.25-.03.4-.06.8-.08,1.2-.05.86-.28.98-1.02.52-.12-.07-.24-.15-.35-.23-.9-.7-1.81-1.39-2.69-2.11-.58-.48-1.12-.98-1.64-1.49l.17-.06c2.09-.76,3.99-1.82,5.57-3.39.48-.47,1.13-.7,1.8-.63.76.08,1.54.02,2.31,0,.21,0,.41-.1.62-.15,0-.05,0-.1.01-.15-.21-.11-.42-.21-.63-.32-.48-.25-.98-.46-1.42-.76-.22-.15-.33-.47-.49-.72.28-.06.57-.17.84-.15.81.06,1.62.19,2.43.27.19.02.4-.05.6-.07,0-.04.01-.08.02-.12-.12-.09-.23-.17-.35-.26-.31-.23-.63-.44-.91-.7-.29-.27-.69-.58-.48-1,.2-.4.68-.24,1.06-.21,1.06.09,2.12.2,3.18.28.29.02.59.01.88-.03.2-.03.38-.15.57-.23-.14-.15-.27-.31-.42-.43-.12-.1-.28-.13-.4-.22-.49-.34-1-.64-1.41-1.06-.74-.77-.76-1.97-.13-2.82.73-.97,1.71-1.35,2.87-1.18.93.14,1.85.33,2.78.49.17.03.36,0,.54-.01.02-.05.03-.1.05-.15-.25-.22-.5-.43-.75-.65-.76-.67-1.54-1.32-2.27-2.02-.32-.31-.69-.74-.4-1.22.29-.48.86-.45,1.3-.29.72.24,1.4.6,2.09.92.24.11.46.26.69.39.04-.04.07-.08.11-.11-.11-.19-.19-.4-.32-.57-.68-.84-1.37-1.67-2.05-2.51-.17-.21-.3-.46-.44-.69.04-.05.08-.09.12-.14.42.17.85.32,1.26.52.85.43,1.68.91,2.52,1.35.16.08.34.11.51.16l.09-.14c-.41-.49-.82-.99-1.25-1.46-.74-.83-1.5-1.63-2.23-2.47-.14-.16-.14-.44-.21-.66.23-.02.51-.14.69-.05.69.32,1.36.69,2.03,1.06.22.12.42.27.62.4.03-.04.06-.07.1-.11-.5-1.24-1.69-2.06-2.16-3.34,1.84.15,3.21,1.19,4.57,2.29.03-.17.03-.3-.03-.39-.26-.44-.46-.93-.8-1.29-1.18-1.25-2.41-2.46-3.63-3.68-.8-.8-1.59-1.58-1.65-2.83-.03-.56.45-.96,1.01-.89.89.11,1.74.42,2.44.97,1.08.86,2.1,1.8,3.13,2.72.37.33.7.72,1.05,1.08.04-.03.07-.06.11-.09-.31-1.05-.77-2.03-1.36-2.95-1.73-2.7-4.16-4.45-7.19-5.42-3-.97-6.09-1.57-9.19-2.1-4.98-.84-9.88-1.96-14.56-3.94-2.94-1.25-5.82-2.6-8.36-4.58-1.24-.97-2.34-2.05-2.85-3.6-.58-1.77-.37-3.51.26-5.21,1.19-3.22,3.31-5.75,6.01-7.8,3.81-2.89,8-5.07,12.48-6.73,2.65-.98,5.38-1.44,8.21-1.16,2.11.2,3.66,1.18,4.53,3.2.72,1.68,1.3,3.4,1.65,5.18.34,1.75.58,3.53.91,5.28.29,1.53.7,3.02,1.72,4.28,1.19,1.47,2.82,1.21,3.56-.53.01-.03.02-.05.03-.08.61-1.52.09-3.74-1.18-4.83-.32-.27-.78-.43-1.19-.52-.46-.11-.85-.42-1.02-.86-.17-.42-.32-.84-.44-1.27-.79-3-1.81-5.9-3.21-8.68-.92-1.82-2.65-3.11-4.66-3.43-.41-.07-.83-.13-1.25-.15-2.86-.17-5.62.4-8.32,1.22-5.97,1.81-11.37,4.71-16.07,8.83-1.64,1.43-3.11,3.04-4.22,4.93-1.6,2.72-2.22,5.6-1.23,8.69.78,2.43,2.32,4.33,4.34,5.84,3.29,2.46,6.92,4.29,10.83,5.48,2.65.81,5.36,1.41,8.05,2.11.22.06.44.14.65.21-.22.16-.43.2-.63.25-1.44.38-2.92.67-4.31,1.17-2.8,1.01-4.94,2.97-6.89,5.14-2.97,3.31-5.33,7.04-7.4,10.96-.87,1.65-1.63,3.35-2.45,5.02-.65,1.32-.99,1.45-2.35,1-3.01-1-6.04-1.17-9.09-.25-.87.26-1.72.63-2.5,1.09-.81.47-.85,1.28-.05,1.76.6.36,1.28.58,1.93.86.14.06.29.11.44.17,0,.05,0,.11.01.16-.32.11-.63.27-.96.32-.77.13-1.56.17-2.33.31-.89.17-1.77.36-2.63.64-.27.09-.62.45-.63.69,0,.23.35.53.62.7.33.21.72.36,1.11.45.73.18,1.47.32,2.21.45.57.1,1.15.14,1.76.57-.27.15-.45.28-.65.34-.39.14-.81.2-1.19.37-.39.17-.75.41-.68.93.05.39.49.72.99.76.17.02.34,0,.51.02.15.02.29.09.44.14,0,.05.01.11.02.16-.29.12-.56.26-.86.35-.52.15-1.06.23-1.57.41-.62.22-.71.8-.18,1.19.38.28.88.41,1.34.55.36.11.76.11,1.12.24.33.12.34.36.07.59-.2.17-.43.31-.63.48-.31.27-.38.77-.1,1.07.28.29.69.29,1.06.34.38.05.56.4.41.75-.11.26-.26.51-.44.72-1.27,1.43-2.8,2.54-4.46,3.48-.16.09-.43.09-.59,0-1.31-.66-2.7-.86-4.13-.74-2.84.25-4.98,1.74-6.76,3.85-.57.67-1.12,1.35-1.29,2.26-.2,1.03.17,1.43,1.16,1.11.76-.24,1.47-.63,2.2-.94.17-.07.35-.13.61-.22-.11.38-.2.64-.25.9-.12.65.32,1.02.93.79.32-.12.61-.32.91-.47.34-.18.68-.36,1.03-.54.04.04.08.08.13.12-.09.33-.19.66-.28.99-.19.72.11,1.3,1.01.97.3-.11.63-.11.95-.16.02.05.05.09.07.14-.08.18-.16.35-.24.53-.26.57-.57,1.13-.75,1.73-.25.81.02,1.05.84.9.4-.07.8-.1,1.2-.14.03.05.06.1.09.14-.11.24-.21.49-.33.73-.29.58-.61,1.14-.87,1.73-.09.2-.09.55.03.68.12.13.45.09.68.06.22-.04.45-.13.63-.26.87-.64,1.8-1.21,2.56-1.96,2.26-2.25,3.28-4.98,2.92-8.19-.03-.27.11-.56.17-.85.3.07.63.09.9.22.44.21.82.55,1.27.75,1.64.74,3.3,1.43,4.95,2.17.33.15.62.39.88.64.24.23.24.49-.05.75-.2.18-.35.43-.45.68-.13.33,0,.57.38.62.21.03.43.05.64.1.49.13.6.37.38.82-.1.21-.24.4-.32.61-.06.18-.12.41-.05.55.04.09.33.09.5.08.27-.01.53-.09.79-.1.29,0,.47.24.41.52-.08.35-.21.7-.22,1.05-.04.77.47,1.07,1.16.73.22-.11.49-.13.73-.19.02.22.04.44.06.67.02.31-.2.62.63.9.26.09.55.06.79-.07,1.38-.76,2.38-1.89,2.95-3.4.22-.58.36-1.18.54-1.77.22-.74.33-.79,1.09-.7,1.03.11,2.05.19,3.08.3.76.08,1.53.17,2.29.28.4.06.52.28.42.73-.34,1.4-.39,2.81.18,4.17.3.72.67.78,1.26.24.15-.14.32-.25.58-.44.06.63.09,1.15.16,1.66.06.4.12.82.28,1.19.12.3.42.33.62.07.18-.24.3-.53.45-.8.1-.18.19-.37.29-.55.06,0,.13.01.19.02.09.51.14,1.02.28,1.51.14.51.29,1.04.55,1.5.28.5.67.45.94-.04.13-.24.22-.52.38-.74.16-.22.38-.4.58-.6.12.25.27.49.36.75.15.45.22.93.41,1.36.21.47.57.57.9.18.49-.58.97-1.2,1.29-1.88,1.4-2.93.83-8.33.22-11.46,0,0,.45-1.48.83-3.52,5.51,2.49,11.28,3.83,17.36,3.93,4.19.06,8.3-.56,12.38-1.38,3.66-.74,7.19-1.85,10.38-3.88,1.86-1.18,3.6-2.49,4.83-4.36.1-.15.16-.32.23-.48-.04-.04-.09-.07-.13-.11-.34.22-.69.44-1.03.66-1.72,1.07-3.44,2.15-5.17,3.21-.24.15-.53.23-.8.34l-.08-.14c.24-.25.48-.51.73-.75,2.48-2.25,4.56-4.8,5.92-7.89.58-1.31,1.15-2.63,1.28-4.08.02-.24,0-.49-.01-.74-.05-.01-.09-.02-.14-.03-.11.12-.24.22-.33.36Zm-51.33-19.03c.16-.8.52-1.58.94-2.29.8-1.34,2.06-1.94,3.62-1.9,2.09.06,3.89.87,5.49,2.17,2.2,1.79,3.6,4.04,3.77,6.93.19,3.12-1.71,5.77-4.55,6.39-2.16.47-4.02-.23-5.66-1.58-.63-.51-1.17-1.13-1.56-1.52-1.85-2.63-2.64-5.27-2.03-8.2Z"/>
    <ellipse class="cls-2" cx="76.7" cy="31.52" rx="2.08" ry="3.15" transform="translate(-3.82 11.68) rotate(-8.5)"/>
  </g>
  <path class="cls-1" d="m110.59,41.35c.59,2.87-.12,5.49-2.13,7.89-1.9,2.25-4.4,3.7-7.51,4.34-2.84.59-5.37.4-7.61-.57-2.48-1.08-4-2.93-4.54-5.55-.38-1.84.05-3.58,1.28-5.21s2.91-2.66,5.03-3.1c2.06-.42,3.81-.37,5.26.15,1.62.59,2.59,1.7,2.93,3.32.24,1.19-.03,2.27-.83,3.26s-1.83,1.61-3.1,1.87c-1.16.24-2.18.22-3.06-.05-1.05-.32-1.67-.96-1.87-1.92-.12-.57.02-1.1.42-1.58.31-.38.6-.61.88-.71s.43-.15.46-.16c.11-.02.17,0,.19.09l-.03.26s-.02.12-.03.26c-.03.29,0,.6.06.93.09.42.38.74.87.96s.99.28,1.5.17c.85-.17,1.5-.58,1.95-1.21s.6-1.33.44-2.1c-.24-1.15-.99-1.92-2.25-2.33-1.1-.36-2.34-.39-3.71-.11-1.76.36-3.18,1.2-4.24,2.5-1.13,1.37-1.52,2.87-1.18,4.51.44,2.13,1.81,3.63,4.11,4.49,2.05.77,4.33.9,6.84.38,2.55-.53,4.58-1.77,6.08-3.73,1.56-2.03,2.09-4.26,1.59-6.69-.27-1.32-.83-2.42-1.66-3.29-.73-.76-1.74-1.43-3.04-2-.89-.4-2.22-.84-3.97-1.34-2.22-.54-4.43-1.09-6.63-1.64-2.28-.77-3.58-1.96-3.92-3.57s.23-3.01,1.67-4.23c1.25-1.05,2.88-1.79,4.9-2.21,1.54-.32,2.8-.4,3.77-.24,1.34.21,2.12.85,2.34,1.93.09.44,0,.86-.28,1.28s-.54.67-.81.75-.45.14-.57.16c-.3.06-.56.07-.79.01-.17-.08-.26-.13-.27-.16-.01-.07.02-.16.09-.28.15-.23.25-.46.28-.69s.03-.46-.01-.69c-.14-.67-.61-1.1-1.42-1.29-.64-.15-1.41-.14-2.3.05-1.43.3-2.58.77-3.44,1.41-1.05.79-1.47,1.69-1.25,2.71.15.75.71,1.35,1.67,1.81.68.32,1.81.64,3.4.98,2.36.49,3.74.79,4.13.9,2.01.51,3.57,1.03,4.68,1.57,1.49.72,2.66,1.63,3.53,2.75.99,1.26,1.69,2.9,2.1,4.9Z"/>
  <path class="cls-1" d="m137.26,43.06c.59,2.87.05,5.53-1.64,8-1.64,2.4-3.85,3.89-6.63,4.46-2.93.61-5.62.09-8.05-1.53-2.43-1.63-3.95-3.9-4.56-6.84-.59-2.85-.06-5.5,1.57-7.95s3.89-3.97,6.77-4.57c2.89-.6,5.56-.07,7.99,1.58s3.95,3.93,4.55,6.85Zm-1.57,1.26c-.46-2.25-1.94-4.18-4.44-5.79-2.58-1.66-5.14-2.23-7.69-1.7-1.99.41-3.54,1.44-4.65,3.09s-1.47,3.41-1.09,5.26c.55,2.69,2.1,4.86,4.65,6.51,2.5,1.62,4.99,2.17,7.49,1.66,1.98-.41,3.53-1.4,4.64-2.96,1.21-1.72,1.58-3.74,1.1-6.07Z"/>
  <path class="cls-1" d="m162.78,49.06s-.16.23-.42.54c-.11.14-.24.31-.38.53s-.26.42-.37.61c-.02.05-.08.18-.19.4-.03.11-.09.17-.18.19s-.18,0-.31-.04c-.6-.23-1.19-.58-1.77-1.04-.84-.68-1.34-1.44-1.52-2.29-.26,1.03-.79,2.03-1.6,3-1.04,1.22-2.25,1.98-3.63,2.26-2.5.51-4.59.09-6.28-1.29-1.47-1.19-2.43-2.88-2.88-5.06-.26-1.27-.35-2.5-.27-3.7.06-1.01.25-2.08.55-3.21.12-.41.42-1.36.91-2.85.04-.16-.09-.31-.39-.43-.19-.08-.53-.16-1.03-.26l-.81-.22c-.12-.02-.19-.08-.21-.17s.08-.19.29-.29.44-.2.67-.31c.4-.18.84-.42,1.3-.7s.88-.59,1.27-.91.77-.64,1.15-.96c.1-.06.17-.1.21-.11.05-.01.11.01.16.07.07.06.1.15.08.29s-.04.24-.09.31c-.89,1.82-1.5,3.6-1.82,5.35-.39,2.06-.38,4.04.01,5.95.45,2.18,1.32,3.87,2.61,5.07s2.78,1.63,4.46,1.28c1.15-.24,2.18-.81,3.11-1.73s1.49-1.91,1.68-2.97l-2.58-12.53c-.05-.25-.28-.49-.68-.73-.32-.16-.63-.33-.94-.51-.1-.06-.16-.14-.17-.22-.03-.16.09-.27.36-.33.15-.03.55-.09,1.2-.18s1.04-.15,1.16-.17c.56-.12.99-.21,1.29-.3s.65-.19,1.06-.31c.25-.05.39.01.42.19.02.1,0,.19-.07.29-.26.31-.47.57-.63.77-.3.39-.43.71-.38.97l2.49,12.08c.24,1.15.72,1.99,1.44,2.54.24.18.75.42,1.54.73.11.03.17.11.2.24.01.05,0,.12-.02.2Z"/>
  <path class="cls-1" d="m186.48,37.9c.44,2.16-.13,4.12-1.71,5.88-1.48,1.66-3.43,2.73-5.84,3.23-2.05.42-3.81.44-5.3.05-1.82-.48-2.89-1.52-3.22-3.11-.25-1.21-.02-2.33.71-3.36s1.7-1.66,2.94-1.92,2.37-.25,3.28.05c1.02.34,1.64,1,1.84,1.97.13.61.02,1.2-.33,1.74s-.83.89-1.45,1.01-1.03.1-1.34-.07c-.08-.05-.13-.1-.14-.14-.02-.1.05-.18.22-.26.22-.13.38-.31.49-.55s.13-.57.04-1.01c-.08-.4-.36-.68-.84-.84s-.96-.2-1.45-.1c-.97.2-1.74.6-2.3,1.2s-.76,1.31-.6,2.13c.24,1.15,1.15,1.88,2.74,2.21,1.32.27,2.81.23,4.48-.11s3.17-1.06,4.3-2.1c1.34-1.23,1.85-2.62,1.53-4.18s-1.12-2.59-2.39-3.11c-.79-.32-2.21-.52-4.26-.59-1.17-.01-2.33-.04-3.49-.07-1.33-.08-2.34-.34-3.04-.76-.91-.55-1.5-1.47-1.76-2.75-.3-1.46.22-2.83,1.57-4.1,1.24-1.18,2.78-1.96,4.62-2.34,1.66-.34,3.05-.41,4.16-.2,1.47.28,2.32,1.01,2.56,2.18.15.75-.08,1.45-.7,2.09-.58.59-1.3.97-2.17,1.15s-1.56.16-2.18-.04c-.76-.24-1.21-.72-1.36-1.43-.08-.37-.02-.72.18-1.05s.44-.58.73-.74c.13-.06.2-.08.22-.09.1-.02.16.04.19.18l.04.42c.06.3.21.53.44.68.3.19.72.24,1.26.12.35-.07.64-.26.85-.56s.28-.61.21-.94c-.13-.61-.66-.96-1.6-1.04-.69-.06-1.57.02-2.62.24-1.31.27-2.43.81-3.36,1.61-1.02.89-1.44,1.83-1.24,2.79.18.87.7,1.48,1.57,1.81.54.22,2.16.35,4.86.41,1.67.04,2.97.14,3.9.3,1.3.23,2.32.63,3.07,1.2.88.67,1.45,1.64,1.71,2.89Z"/>
  <path class="cls-1" d="m185.01,71.97c.05.11.07.2.05.26-.03.09-.11.12-.25.08-.11-.03-.21-.06-.28-.09-.38-.15-.63-.24-.76-.28-.23-.06-.41-.1-.56-.12s-.31-.04-.5-.08c-.15-.04-.21-.11-.19-.21.01-.05.06-.11.15-.19.2-.12.35-.21.45-.28.19-.12.3-.25.34-.38l3.42-12.72c.06-.23.1-.41.13-.55.02-.14-.04-.21-.18-.23-.07,0-.21.04-.41.14s-.33.15-.4.15c-.11.01-.14-.04-.11-.17.01-.04.04-.09.1-.15s.29-.24.7-.53c.33-.24.59-.43.78-.57.29-.21.61-.47.96-.78.25-.22.4-.34.47-.37.02-.01.04-.02.07-.02.02,0,.04,0,.05,0,.06.02.07.09.03.21-.1.25-.21.55-.34.93s-.24.77-.36,1.19l-3.72,13.82c-.03.13,0,.28.09.47.08.16.16.31.25.46Z"/>
  <path class="cls-1" d="m195.97,77.03c.02.1.03.17.02.21-.02.08-.08.11-.17.08-.03,0-.13-.05-.3-.12s-.35-.13-.51-.18c-.11-.03-.24-.05-.39-.07s-.23-.02-.26-.03c-.15-.04-.21-.1-.18-.19,0-.03.04-.07.08-.12.08-.09.16-.18.23-.29s.12-.23.16-.37l.25-1.16c-.42.58-.98,1.04-1.68,1.37-.77.36-1.5.45-2.19.27-.97-.26-1.7-.84-2.17-1.74-.5-.95-.59-2.03-.26-3.25s.99-2.14,1.98-2.76c.95-.59,1.94-.75,2.97-.48.5.13.94.39,1.33.75s.66.76.81,1.17c.09-.35.07-.91-.06-1.69-.16-.92-.42-1.71-.79-2.37-.46-.84-1.04-1.35-1.72-1.53-.42-.11-.82-.1-1.18.04-.42.16-.68.46-.8.91-.07.25-.07.48-.01.67s.18.32.36.37c.13.03.25.01.37-.07s.2-.19.24-.33c.03-.1.04-.21.05-.31s0-.2.01-.28c0-.06,0-.1.04-.1.01,0,.06,0,.13.02.17.07.3.22.4.44s.11.45.05.68c-.1.37-.3.65-.61.84s-.61.24-.92.15c-.37-.1-.63-.33-.78-.71s-.16-.82-.02-1.35c.18-.68.61-1.14,1.29-1.36.59-.2,1.25-.2,1.96,0s1.32.65,1.85,1.4.88,1.65,1.04,2.72c.12.75.13,1.65.03,2.7-.06.67-.18,1.56-.38,2.7s-.32,1.92-.36,2.35c-.02.21-.02.43.02.64.05.2.08.33.09.38Zm-.59-4.24c.24-.9.17-1.68-.21-2.36s-1-1.13-1.85-1.36c-.69-.19-1.38-.06-2.05.37s-1.12,1.07-1.35,1.91c-.24.9-.18,1.72.18,2.48s.91,1.23,1.63,1.43c.84.23,1.59.11,2.26-.35s1.13-1.17,1.38-2.11Z"/>
  <path class="cls-1" d="m156.01,101.5c.16.15.24.29.22.41-.02.16-.2.23-.56.19-.29-.03-.54-.07-.75-.11-1-.19-1.66-.3-1.97-.33-.57-.06-1.03-.1-1.38-.11s-.74-.02-1.19-.04c-.32-.04-.48-.14-.46-.3.01-.1.08-.21.21-.32.4-.29.7-.51.9-.65.37-.28.56-.55.56-.82l-.52-25.74-7.99,7.34c.71.96,1.27,2.01,1.68,3.16.46,1.31.63,2.5.51,3.58-.16,1.45-.68,2.67-1.57,3.67-.95,1.06-2.07,1.52-3.36,1.38s-2.23-.82-2.92-2.03c-.63-1.13-.87-2.41-.71-3.83.11-1.02.49-2.03,1.12-3.03.49-.78,1.06-1.45,1.72-2.01-1.4-2.16-2.5-4-3.3-5.52s-1.28-2.66-1.43-3.42l-6.07,23.92c-.06.27.09.58.45.94.29.29.6.57.91.85.1.13.15.25.14.36-.02.16-.16.23-.42.2-.13,0-.54-.06-1.22-.19s-1.16-.21-1.46-.24c-.62-.07-1.11-.11-1.49-.12s-.81-.03-1.3-.05c-.32-.04-.48-.14-.46-.3.01-.12.12-.25.31-.39.3-.19.61-.38.93-.57.4-.28.63-.55.69-.81l6.76-26.61c.06-.27-.1-.59-.47-.98-.3-.28-.59-.56-.88-.85-.08-.1-.11-.19-.1-.28.02-.18.16-.25.42-.23.1.01.46.07,1.07.19.61.11,1.18.2,1.72.26.6.07,1.08.11,1.45.13s.8.03,1.28.04c.34.04.49.14.48.31-.01.09-.07.19-.19.29-.4.27-.71.48-.93.63-.43.26-.66.52-.69.79,0,.04,0,.11.02.21.15.65.76,1.77,1.83,3.36.83,1.21,1.81,2.56,2.94,4.03,1,1.29,1.52,1.94,1.55,1.95l8.15-7.41c.26-.21.41-.43.43-.66.02-.16-.04-.34-.16-.54-.06-.1-.19-.24-.38-.43-.19-.19-.38-.38-.58-.59-.1-.13-.15-.24-.14-.33.02-.15.19-.21.51-.17.29.03.54.07.75.11,1,.19,1.66.3,1.97.33.44.05.96.08,1.55.1s.95.04,1.06.05c.41.05.61.17.58.36-.01.1-.08.2-.21.27-.33.18-.59.31-.76.42-.62.35-.93.7-.92,1.03l.55,27.43c0,.26.2.57.58.95.3.28.6.54.91.81Zm-13.1-13.64c.09-.79-.13-1.67-.67-2.62-.38-.68-.9-1.34-1.54-1.99-.65.47-1.16.98-1.55,1.51-.53.71-.83,1.47-.92,2.26-.11.99-.01,1.85.29,2.58.36.86.95,1.33,1.76,1.42.72.08,1.33-.22,1.82-.91.44-.6.71-1.35.81-2.25Z"/>
  <path class="cls-1" d="m184.23,102.16c-.54,1.23-1.64,2.31-3.3,3.25-1.94,1.1-3.97,1.54-6.09,1.3-1.36-.15-2.55-.43-3.57-.83-1.17-.46-2.25-1.15-3.25-2.07-.49.48-.95,1-1.37,1.57-.53.71-.82,1.24-.86,1.59-.05.42.04.72.25.91.14.12.39.2.75.24.11.01.22,0,.33,0l.29-.06c.07-.02.12-.02.16.02.1.07.11.19.03.37-.13.35-.36.66-.67.93-.41.35-.87.49-1.36.44-.53-.06-.94-.29-1.24-.71s-.41-.92-.35-1.52c.05-.48.29-1.04.71-1.69.11-.18.9-1.17,2.35-2.97-1.02-1.27-1.76-2.6-2.23-4-.52-1.56-.68-3.19-.49-4.9.35-3.14,1.71-5.74,4.08-7.8,2.37-2.05,5.12-2.91,8.26-2.56,1.25.14,2.5.57,3.75,1.31.69.43,1.38.84,2.07,1.25.13.08.33.14.59.2s.52.1.78.13l.7.03c.17.02.25.1.23.23-.01.1-.08.18-.19.23-.26.12-.56.29-.88.52-.44.28-.82.58-1.16.89-1.68,1.45-3.66,3.37-5.93,5.77s-4.43,4.82-6.47,7.26c.84.73,1.72,1.32,2.62,1.77,1.07.53,2.21.86,3.41.99,1.67.19,3.08.03,4.23-.46.84-.36,1.81-1.06,2.91-2.11.11-.12.23-.26.37-.4s.29-.19.44-.14c.2.07.28.22.25.46-.02.18-.08.36-.18.55Zm-4.88-13.95c.1-.88-.32-1.63-1.25-2.23-.79-.51-1.77-.83-2.95-.96-2.2-.24-4.11.46-5.73,2.11-1.52,1.56-2.41,3.51-2.67,5.86-.16,1.39.04,2.82.58,4.29.46,1.25,1.08,2.33,1.87,3.25,1.22-1.39,2.17-2.48,2.85-3.25,1.09-1.24,2.02-2.28,2.79-3.12.98-1.07,1.96-2.15,2.94-3.22.98-1.16,1.5-2.08,1.57-2.73Z"/>
  <path class="cls-1" d="m208.5,94.01c-.1.87-.41,1.54-.95,2.03s-1.21.68-2.02.59c-.57-.06-1.06-.19-1.45-.39s-.64-.43-.73-.72c-.04-.07-.04-.13,0-.2s.11-.1.22-.09c.28.03.54.02.79-.03s.48-.16.68-.33c.29-.26.47-.59.51-1.01.06-.49-.1-.91-.47-1.26-.43-.4-1.07-.64-1.94-.74-1.1-.12-2.23.23-3.41,1.05-1.04.73-1.88,1.66-2.52,2.78l-1.53,13.77c-.03.27.11.56.42.89.27.28.53.54.8.81.14.17.2.32.19.44-.02.18-.2.26-.54.22-.28-.03-.51-.06-.69-.1-.95-.18-1.58-.29-1.89-.32-.59-.07-1.06-.1-1.41-.11s-.75-.02-1.21-.04c-.34-.04-.5-.14-.48-.31.02-.14.13-.29.33-.45.3-.2.53-.34.68-.43.52-.32.8-.62.83-.91l1.48-13.28c.11-1.03-.08-1.92-.57-2.65-.34-.49-1.11-1.08-2.32-1.76-.06-.02-.09-.07-.08-.15.01-.09.05-.16.12-.21l1.18-.87c.22-.17.42-.34.6-.5.05-.04.17-.15.34-.35.1-.09.21-.14.32-.12.06,0,.13.04.2.09.8.68,1.39,1.25,1.76,1.72.83,1.02,1.26,2.01,1.29,2.98.71-1.18,1.68-2.12,2.9-2.84,1.42-.83,2.93-1.15,4.53-.97,1.38.15,2.42.59,3.13,1.32s1.01,1.54.91,2.45Z"/>
</svg>